<?xml version="1.0" encoding="UTF-8" standalone="no" ?>
<!DOCTYPE svg PUBLIC "-//W3C//DTD SVG 1.1//EN" "http://www.w3.org/Graphics/SVG/1.1/DTD/svg11.dtd">
<svg xmlns="http://www.w3.org/2000/svg" xmlns:xlink="http://www.w3.org/1999/xlink" version="1.1" width="1080" height="1080" viewBox="0 0 1080 1080" xml:space="preserve">
<desc>Created with Fabric.js 5.2.4</desc>
<defs>
</defs>
<g transform="matrix(1 0 0 1 540 540)" id="1458c9d0-cb61-468d-a375-ec7fee3f2951"  >
<rect style="stroke: none; stroke-width: 1; stroke-dasharray: none; stroke-linecap: butt; stroke-dashoffset: 0; stroke-linejoin: miter; stroke-miterlimit: 4; fill: rgb(255,255,255); fill-rule: nonzero; opacity: 1; visibility: hidden;" vector-effect="non-scaling-stroke"  x="-540" y="-540" rx="0" ry="0" width="1080" height="1080" />
</g>
<g transform="matrix(1 0 0 1 540 540)" id="706b1986-c330-40d0-969e-3bf2b00f81ce"  >
</g>
<g transform="matrix(2.11 0 0 2.11 540 540)"  >
<path style="stroke: none; stroke-width: 1; stroke-dasharray: none; stroke-linecap: butt; stroke-dashoffset: 0; stroke-linejoin: miter; stroke-miterlimit: 4; fill: rgb(255,255,255); fill-rule: nonzero; opacity: 1;"  transform=" translate(-256, -255.05)" d="M 512 256 C 512 114.6 397.4 0 256 0 C 114.60000000000002 0 0 114.6 0 256 C 0 376 82.7 476.8 194.2 504.5 L 194.2 334.2 L 141.4 334.2 L 141.4 256 L 194.2 256 L 194.2 222.3 C 194.2 135.20000000000002 233.6 94.80000000000001 319.2 94.80000000000001 C 335.4 94.80000000000001 363.4 98.00000000000001 374.9 101.20000000000002 L 374.9 172 C 368.9 171.4 358.4 171 345.29999999999995 171 C 303.29999999999995 171 287.09999999999997 186.9 287.09999999999997 228.2 L 287.09999999999997 256 L 370.69999999999993 256 L 356.29999999999995 334.2 L 287 334.2 L 287 510.1 C 413.8 494.8 512 386.9 512 256 L 512 256 z" stroke-linecap="round" />
</g>
</svg>